<mxfile host="app.diagrams.net" modified="2023-09-12T20:29:28.566Z" agent="Mozilla/5.0 (Windows NT 10.0; Win64; x64) AppleWebKit/537.36 (KHTML, like Gecko) Chrome/116.0.0.0 Safari/537.36" etag="mJIrnDc5y3BPFzFGlkcu" version="21.7.4" type="google">
  <diagram name="Página-1" id="FkGrkc1sZW8HLexn_-Hx">
    <mxGraphModel grid="1" page="1" gridSize="10" guides="1" tooltips="1" connect="1" arrows="1" fold="1" pageScale="1" pageWidth="827" pageHeight="1169" math="0" shadow="0">
      <root>
        <mxCell id="0" />
        <mxCell id="1" parent="0" />
        <mxCell id="Zh4ZXehYuZV6yQUKqsD6-1" value="Livro" style="swimlane;fontStyle=0;childLayout=stackLayout;horizontal=1;startSize=26;fillColor=none;horizontalStack=0;resizeParent=1;resizeParentMax=0;resizeLast=0;collapsible=1;marginBottom=0;whiteSpace=wrap;html=1;" vertex="1" parent="1">
          <mxGeometry x="200" y="120" width="140" height="100" as="geometry" />
        </mxCell>
        <mxCell id="Zh4ZXehYuZV6yQUKqsD6-3" value="Nome Livro&lt;br&gt;ISBN&lt;br&gt;código livro&lt;br&gt;Nome Autor" style="text;strokeColor=none;fillColor=none;align=left;verticalAlign=top;spacingLeft=4;spacingRight=4;overflow=hidden;rotatable=0;points=[[0,0.5],[1,0.5]];portConstraint=eastwest;whiteSpace=wrap;html=1;" vertex="1" parent="Zh4ZXehYuZV6yQUKqsD6-1">
          <mxGeometry y="26" width="140" height="74" as="geometry" />
        </mxCell>
        <mxCell id="Zh4ZXehYuZV6yQUKqsD6-6" value="historico" style="swimlane;fontStyle=0;childLayout=stackLayout;horizontal=1;startSize=26;fillColor=none;horizontalStack=0;resizeParent=1;resizeParentMax=0;resizeLast=0;collapsible=1;marginBottom=0;whiteSpace=wrap;html=1;" vertex="1" parent="1">
          <mxGeometry x="390" y="220" width="140" height="90" as="geometry" />
        </mxCell>
        <mxCell id="Zh4ZXehYuZV6yQUKqsD6-7" value="empréstimo&lt;br&gt;devolução" style="text;strokeColor=none;fillColor=none;align=left;verticalAlign=top;spacingLeft=4;spacingRight=4;overflow=hidden;rotatable=0;points=[[0,0.5],[1,0.5]];portConstraint=eastwest;whiteSpace=wrap;html=1;" vertex="1" parent="Zh4ZXehYuZV6yQUKqsD6-6">
          <mxGeometry y="26" width="140" height="64" as="geometry" />
        </mxCell>
        <mxCell id="Zh4ZXehYuZV6yQUKqsD6-15" style="edgeStyle=orthogonalEdgeStyle;rounded=0;orthogonalLoop=1;jettySize=auto;html=1;entryX=1;entryY=0.5;entryDx=0;entryDy=0;" edge="1" parent="1" source="Zh4ZXehYuZV6yQUKqsD6-10" target="Zh4ZXehYuZV6yQUKqsD6-7">
          <mxGeometry relative="1" as="geometry" />
        </mxCell>
        <mxCell id="Zh4ZXehYuZV6yQUKqsD6-19" value="1" style="edgeLabel;html=1;align=center;verticalAlign=middle;resizable=0;points=[];" connectable="0" vertex="1" parent="Zh4ZXehYuZV6yQUKqsD6-15">
          <mxGeometry x="-0.5872" y="3" relative="1" as="geometry">
            <mxPoint y="-25" as="offset" />
          </mxGeometry>
        </mxCell>
        <mxCell id="Zh4ZXehYuZV6yQUKqsD6-20" value="N" style="edgeLabel;html=1;align=center;verticalAlign=middle;resizable=0;points=[];" connectable="0" vertex="1" parent="Zh4ZXehYuZV6yQUKqsD6-15">
          <mxGeometry x="0.4862" relative="1" as="geometry">
            <mxPoint x="-36" y="-8" as="offset" />
          </mxGeometry>
        </mxCell>
        <mxCell id="Zh4ZXehYuZV6yQUKqsD6-10" value="Leitor" style="swimlane;fontStyle=0;childLayout=stackLayout;horizontal=1;startSize=26;fillColor=none;horizontalStack=0;resizeParent=1;resizeParentMax=0;resizeLast=0;collapsible=1;marginBottom=0;whiteSpace=wrap;html=1;" vertex="1" parent="1">
          <mxGeometry x="590" y="120" width="140" height="70" as="geometry" />
        </mxCell>
        <mxCell id="Zh4ZXehYuZV6yQUKqsD6-11" value="Codigo leitor&lt;br&gt;nome leitor" style="text;strokeColor=none;fillColor=none;align=left;verticalAlign=top;spacingLeft=4;spacingRight=4;overflow=hidden;rotatable=0;points=[[0,0.5],[1,0.5]];portConstraint=eastwest;whiteSpace=wrap;html=1;" vertex="1" parent="Zh4ZXehYuZV6yQUKqsD6-10">
          <mxGeometry y="26" width="140" height="44" as="geometry" />
        </mxCell>
        <mxCell id="Zh4ZXehYuZV6yQUKqsD6-16" style="edgeStyle=orthogonalEdgeStyle;rounded=0;orthogonalLoop=1;jettySize=auto;html=1;entryX=0;entryY=0.5;entryDx=0;entryDy=0;exitX=0.486;exitY=1.027;exitDx=0;exitDy=0;exitPerimeter=0;" edge="1" parent="1" source="Zh4ZXehYuZV6yQUKqsD6-3" target="Zh4ZXehYuZV6yQUKqsD6-7">
          <mxGeometry relative="1" as="geometry">
            <Array as="points">
              <mxPoint x="268" y="278" />
            </Array>
          </mxGeometry>
        </mxCell>
        <mxCell id="Zh4ZXehYuZV6yQUKqsD6-17" value="N" style="edgeLabel;html=1;align=center;verticalAlign=middle;resizable=0;points=[];" connectable="0" vertex="1" parent="Zh4ZXehYuZV6yQUKqsD6-16">
          <mxGeometry x="0.4494" y="-2" relative="1" as="geometry">
            <mxPoint x="29" y="-10" as="offset" />
          </mxGeometry>
        </mxCell>
        <mxCell id="Zh4ZXehYuZV6yQUKqsD6-18" value="1" style="edgeLabel;html=1;align=center;verticalAlign=middle;resizable=0;points=[];" connectable="0" vertex="1" parent="Zh4ZXehYuZV6yQUKqsD6-16">
          <mxGeometry x="-0.7303" relative="1" as="geometry">
            <mxPoint x="-8" y="-16" as="offset" />
          </mxGeometry>
        </mxCell>
      </root>
    </mxGraphModel>
  </diagram>
</mxfile>
